<?xml version="1.0" encoding="utf-8"?>
<!-- Generator: Adobe Illustrator 26.2.1, SVG Export Plug-In . SVG Version: 6.00 Build 0)  -->
<svg version="1.1" id="Layer_1" xmlns="http://www.w3.org/2000/svg" xmlns:xlink="http://www.w3.org/1999/xlink" x="0px" y="0px"
	 viewBox="0 0 42 42" style="enable-background:new 0 0 42 42;" xml:space="preserve">
<style type="text/css">
	.st0{display:none;}
	.st1{fill:url(#SVGID_1_);}
	.st2{fill:#9E6723;}
</style>
<g id="exPXvh_00000005985733825287855440000014436953954635009194_" class="st0">
	
		<image style="display:inline;overflow:visible;" width="2048" height="1536" id="exPXvh_00000121237260520445710070000013795799447424733057_" xlink:href="37DA257D9F46637.jpg"  transform="matrix(0.3139 0 0 0.3139 -352.1281 -162.8615)">
	</image>
</g>
<g>
	<linearGradient id="SVGID_1_" gradientUnits="userSpaceOnUse" x1="8.9155" y1="8.9155" x2="33.0842" y2="33.0842">
		<stop  offset="0" style="stop-color:#F9F095"/>
		<stop  offset="1" style="stop-color:#EC8D0F"/>
	</linearGradient>
	<path class="st1" d="M21,38.1c-9.4,0-17.1-7.7-17.1-17.1S11.6,3.9,21,3.9S38.1,11.6,38.1,21S30.4,38.1,21,38.1z"/>
	<path class="st2" d="M21,5.4c8.6,0,15.6,7,15.6,15.6s-7,15.6-15.6,15.6S5.4,29.6,5.4,21S12.4,5.4,21,5.4 M21,2.4
		C10.7,2.4,2.4,10.7,2.4,21S10.7,39.6,21,39.6S39.6,31.3,39.6,21S31.3,2.4,21,2.4L21,2.4z"/>
</g>
<g>
</g>
<g>
</g>
<g>
</g>
<g>
</g>
<g>
</g>
<g>
</g>
</svg>
