<?xml version="1.0" encoding="utf-8"?>
<!-- Generator: Adobe Illustrator 26.2.1, SVG Export Plug-In . SVG Version: 6.00 Build 0)  -->
<svg version="1.1" id="Layer_1" xmlns="http://www.w3.org/2000/svg" xmlns:xlink="http://www.w3.org/1999/xlink" x="0px" y="0px"
	 viewBox="0 0 48 48" style="enable-background:new 0 0 48 48;" xml:space="preserve">
<style type="text/css">
	.st0{fill:url(#SVGID_1_);}
	.st1{fill:url(#SVGID_00000031175026581808782280000003400421176260111747_);}
	.st2{fill:#9F6823;}
</style>
<linearGradient id="SVGID_1_" gradientUnits="userSpaceOnUse" x1="24" y1="46.082" x2="24" y2="1.918" gradientTransform="matrix(1 0 0 -1 0 48)">
	<stop  offset="0" style="stop-color:#E2E1E1"/>
	<stop  offset="1" style="stop-color:#ACACAC"/>
</linearGradient>
<path class="st0" d="M41.5,46.1h-35c-2.6,0-4.6-2-4.6-4.6v-35c0-2.6,2-4.6,4.6-4.6h35c2.6,0,4.6,2,4.6,4.6v35
	C46.1,44.1,44.1,46.1,41.5,46.1z"/>
<g>
	<g>
		
			<linearGradient id="SVGID_00000018931332037715957660000009776104526285144721_" gradientUnits="userSpaceOnUse" x1="293.2569" y1="335.2569" x2="318.7141" y2="360.7141" gradientTransform="matrix(1 0 0 1 -282 -324)">
			<stop  offset="0" style="stop-color:#F9F196"/>
			<stop  offset="1" style="stop-color:#EC8E11"/>
		</linearGradient>
		<path style="fill:url(#SVGID_00000018931332037715957660000009776104526285144721_);" d="M24,42c-9.9,0-18-8.1-18-18S14.1,6,24,6
			s18,8.1,18,18S33.9,42,24,42z"/>
		<path class="st2" d="M24,7.5c9.1,0,16.5,7.4,16.5,16.5S33.1,40.5,24,40.5S7.5,33.1,7.5,24S14.9,7.5,24,7.5 M24,4.4
			C13.1,4.4,4.4,13.1,4.4,24S13.1,43.6,24,43.6S43.6,34.9,43.6,24S34.9,4.4,24,4.4L24,4.4z"/>
	</g>
</g>
</svg>
